<svg xmlns="http://www.w3.org/2000/svg" viewBox="0 0 433.01 438.83">
    <line x1="127.33" y1="129.31" x2="313.72" y2="314.55"
        style="fill:#fff;stroke:#020202;stroke-miterlimit:10;stroke-width:6px" />
    <line x1="311.35" y1="127.12" x2="129.69" y2="316.74"
        style="fill:#fff;stroke:#020202;stroke-miterlimit:10;stroke-width:6px" />
    <path
        d="M330.53,192.17l-2,1.7,3.79,5.53-32.18,51.19h-5.5v2.69l77.85-.14v-2.69l-5.36.14-32.06-51.05,3.66-5.53-1.83-1.7-3.27,4.82-3.14-5Zm3.27,34.6,14.53,23.39-29.7.15,15.17-23.54Z"
        transform="translate(-8.77 -5.63)" style="fill:#020202" />
    <path
        d="M151.13,258.29A23.55,23.55,0,0,1,129.27,226l-9.36,10.76a2.74,2.74,0,0,1-2.07.94.86.86,0,0,1-.32-.05l-3.64,0a23.54,23.54,0,1,1-23.35-26.48,23.39,23.39,0,0,1,7.39,1.2l4.32-9.81-1.56-3.94H95.87a2.78,2.78,0,1,1,0-5.48H108.8a2.78,2.78,0,1,1,0,5.48h-2.27l.59,1.55h32.63l-.88-3.58a2.75,2.75,0,0,1,2.2-3.36,1.27,1.27,0,0,1,.47-.09h9a7.64,7.64,0,0,1,0,15.27,2.8,2.8,0,0,1,0-5.59,1.93,1.93,0,0,0,1.85-2,2,2,0,0,0-1.85-2.1H145l3.11,12.65a23.54,23.54,0,1,1,3,46.9Zm-7-40.19a18,18,0,1,0,7-1.43,16.15,16.15,0,0,0-1.67.09l4.3,17.53a2.73,2.73,0,0,1-2,3.31,2.51,2.51,0,0,1-.65.08,2.74,2.74,0,0,1-2.67-2.09Zm-53.61-1.43a18.07,18.07,0,1,0,17.82,21H91a2.74,2.74,0,0,1-2.51-3.85l7.21-16.39A17.82,17.82,0,0,0,90.53,216.67ZM108.4,232.2a18.11,18.11,0,0,0-7.75-12.4l-5.46,12.4Zm10-2.11,21.24-24.42H109.19ZM102.89,214.7a23.66,23.66,0,0,1,5.73,5L105,210Zm36.52-.38a23.66,23.66,0,0,1,3.41-1.61l-.44-1.8Z"
        transform="translate(-8.77 -5.63)" style="fill:#020202" />
    <path
        d="M151.13,212.19a22.64,22.64,0,0,0-3.74.33l-3.62-14.78h6.75a3.06,3.06,0,0,1,0,6.1,1.8,1.8,0,0,0,0,3.59,6.64,6.64,0,0,0,0-13.27h-9a.2.2,0,0,0-.15.06,1.74,1.74,0,0,0-1.23.66,1.77,1.77,0,0,0-.32,1.49l1.19,4.82h-34.6l-1.34-3.55h3.71a1.8,1.8,0,1,0,0-3.48H95.87a1.8,1.8,0,1,0,0,3.48h5.49l2,5-4.86,11.05a22.54,22.54,0,1,0-7.92,43.64A22.62,22.62,0,0,0,113,236.68l4.54-.05.14-.26.18.31a1.74,1.74,0,0,0,1.31-.6l23.74-27.29,1.12,4.56a22.53,22.53,0,1,0,7.12-1.16ZM113,233.2a22.46,22.46,0,0,0-11.39-18.09l3.42-7.75,9.76,25.84Zm-19.35,0,6.54-14.87a19,19,0,0,1,9.32,14.87Zm-3.12-17.53a19,19,0,0,1,6.51,1.17l-7.66,17.4a1.74,1.74,0,0,0,1.6,2.44h18.5a19.06,19.06,0,1,1-18.95-21Zm51.31-11L118.08,232l-10.33-27.33Zm9.28,49.14a19.06,19.06,0,0,1-6.29-37.06l4.56,18.6a1.73,1.73,0,0,0,1.7,1.33,1.48,1.48,0,0,0,.41-.05,1.71,1.71,0,0,0,1.08-.79,1.73,1.73,0,0,0,.2-1.32l-4.56-18.6a17.67,17.67,0,0,1,2.9-.25,19.07,19.07,0,0,1,0,38.14Z"
        transform="translate(-8.77 -5.63)" style="fill:#020202" />
    <path d="M238,291a9.35,9.35,0,0,0,0-18.7,9.4,9.4,0,0,0-6.73,2.74,9,9,0,0,0,0,13.22A9.4,9.4,0,0,0,238,291Z"
        transform="translate(-8.77 -5.63)" style="fill:#020202" />
    <path
        d="M214.72,322l5.36-22.58s.73-4.12.73-4.13l.15-1.61c-.86-1.57-1.58-1.7-3.68-1.14,0,0-6.94,1.88-8.33,2.85-3.49,2.46-2.64,4.67-.63,5.08-.86,2.2-6.67,4.77-8.67,13.25-1.86,7.85-4,10.09,2.88,10.68l7.07.13C212.36,324.82,214.07,324,214.72,322Z"
        transform="translate(-8.77 -5.63)" style="fill:#020202" />
    <path
        d="M208.45,361v1.08a5.76,5.76,0,0,0,1.61,4.08,5.23,5.23,0,0,0,4,1.72,5.36,5.36,0,0,0,5.59-4.08L224,347.41l-7.78-17.62Z"
        transform="translate(-8.77 -5.63)" style="fill:#020202" />
    <path
        d="M258.15,314.91l-2.77-.58,3.36-11.73.33-1.42c.06-1-.6-1.59-2-1.67a2,2,0,0,0-2.15,1.24l-3.64,12.73-7-1.47-4.15-12.95a8.17,8.17,0,0,0-2.69-4.73,7.47,7.47,0,0,0-3.76-1.93l-1.93-.22a8.09,8.09,0,0,0-4.95,1.61,7.85,7.85,0,0,0-2.79,3.34l-.43,1.72-4.75,20.88a16.4,16.4,0,0,0-1,5.61c.15,2.55,2.25,5.79,2.25,5.79L234.85,364a5.75,5.75,0,0,0,1.94,3,5.41,5.41,0,0,0,3.65,1.29,5.23,5.23,0,0,0,4-1.72,5.76,5.76,0,0,0,1.61-4.08v-1.08l-2.33-6.31,9.55-33.31,3.18.68h.64a4.15,4.15,0,0,0,2.91-1.07,3.37,3.37,0,0,0,1.18-2.58A3.71,3.71,0,0,0,258.15,314.91Zm-16.87,33.57-8.05-21.85,2.8-14.24,1.78,4.13a2.92,2.92,0,0,0,1,1.72,2.26,2.26,0,0,0,1.4.65l.65.21,8.36,1.79Z"
        transform="translate(-8.77 -5.63)" style="fill:#020202" />
    <polygon
        points="220.72 76.21 199.08 112.55 207 112.55 196.48 128.32 204.92 128.32 194.66 142.63 215.13 142.63 212.65 174.48 228.79 174.48 225.33 142.61 246.78 142.63 236.53 128.32 244.95 128.32 234.43 112.55 242.35 112.55 220.72 76.21"
        style="fill:#020202" />
    <path
        d="M52.6,188.8l-5-1.3.31-4.65-29.08-7.63-2,7.51,4.81,1.75-1.64,6.26-11.3-3L18.42,151l11.31,3-1.65,6.29-5-.84L21,167l29.08,7.63,2-4.23,5,1.3Z"
        transform="translate(-8.77 -5.63)" style="fill:#020202" />
    <path
        d="M60,161l-4.56-2.36,1.3-4.43-27.2-14.05-2.86,3.63-4.59-2.36,9.28-18a20.92,20.92,0,0,1,5.22-6.8,11.48,11.48,0,0,1,13.29-1.35A12.32,12.32,0,0,1,55,120a13,13,0,0,1,1.75,6.77,16.91,16.91,0,0,1-2,7.64L51,141.61l9.63,5,2.88-3.65,4.55,2.35ZM45.17,138.59l3.2-6.2c1.13-2.18,1.51-4.06,1.14-5.62a5.66,5.66,0,0,0-3.21-3.72,6.31,6.31,0,0,0-5-.56,7.49,7.49,0,0,0-4,4L34,132.79Zm27.41-2-19.67-2.07,1.85-7.72,15.6,1.06L72.78,125l4.56,2.35Z"
        transform="translate(-8.77 -5.63)" style="fill:#020202" />
    <path
        d="M78.21,126.32l-3.95-3.27L76.47,119,52.88,99.47l-3.57,2.94-4-3.29,21.1-25.5L75.31,81,71.13,86l-4-2.84L58.77,93.24,67,100.07l9.21-11.13,5.07,4.2-9.2,11.13L81.5,112l8.77-10.61-3.68-3.54,4.15-5,9,7.43Z"
        transform="translate(-8.77 -5.63)" style="fill:#020202" />
    <path
        d="M101.49,98.39l-3.2-4,3-3.52L82.18,67l-4.1,2.14-3.22-4L100.73,44.4l7.18,9-5.12,4.1-3.37-3.61L89.21,62l6.69,8.38,11.29-9,4.11,5.15-11.28,9,7.61,9.52,10.75-8.6-2.88-4.22,5.08-4.06,7.28,9.11Z"
        transform="translate(-8.77 -5.63)" style="fill:#020202" />
    <path
        d="M145.81,68.45a32.38,32.38,0,0,1-8.12,3,24.7,24.7,0,0,1-8.45.22l-4.71-9.17,5.89-3,3.58,5a9.92,9.92,0,0,0,4.05-.06,17.15,17.15,0,0,0,4.8-1.69A10.37,10.37,0,0,0,146,60.33a5.24,5.24,0,0,0,1.33-2.74,4.72,4.72,0,0,0-.54-2.87,4.87,4.87,0,0,0-1.9-2.06,6.75,6.75,0,0,0-3.18-.81,23.89,23.89,0,0,0-5,.44,45,45,0,0,1-9,.93,13.44,13.44,0,0,1-6.37-1.5,10.42,10.42,0,0,1-4.2-4.55,10.16,10.16,0,0,1-1.08-6.31A12.93,12.93,0,0,1,119,34.72a19.8,19.8,0,0,1,6.26-5,27.35,27.35,0,0,1,8.29-2.94,20.77,20.77,0,0,1,7.39.06l4.39,8.55-5.71,2.93-3.66-4.7a11.48,11.48,0,0,0-3.24.27,16.48,16.48,0,0,0-4.06,1.5,9.83,9.83,0,0,0-2.93,2.2,5.59,5.59,0,0,0-1.39,2.72,4.49,4.49,0,0,0,.49,2.94,4.18,4.18,0,0,0,1.85,1.87,7.44,7.44,0,0,0,3.28.58,38.13,38.13,0,0,0,5.51-.53q7.17-1.48,11.89-.28a10.76,10.76,0,0,1,7.11,5.86,10.3,10.3,0,0,1,1.13,6.49,12.54,12.54,0,0,1-3,6.15A22,22,0,0,1,145.81,68.45Z"
        transform="translate(-8.77 -5.63)" style="fill:#020202" />
    <path
        d="M183.6,53.57l-1-5L187,46.81l-5.62-29.53-7.63,1.46.49,5.09L167.84,25l-2.18-11.48L203,6.44l2.19,11.48-6.39,1.22-1.42-4.92-7.68,1.46,5.63,29.53h4.68l1,5Z"
        transform="translate(-8.77 -5.63)" style="fill:#020202" />
    <path
        d="M230.58,49.51a18.74,18.74,0,0,1-7.8-1.86,17.88,17.88,0,0,1-6-4.71,20.35,20.35,0,0,1-3.72-7A25.8,25.8,0,0,1,212,27.29l0-.64a26,26,0,0,1,1.65-8.55,20.65,20.65,0,0,1,4.14-6.74A17.72,17.72,0,0,1,224,7a18.77,18.77,0,0,1,7.9-1.36,19.17,19.17,0,0,1,7.86,1.85,17.88,17.88,0,0,1,6,4.74,20.55,20.55,0,0,1,3.75,7,25.69,25.69,0,0,1,1.13,8.64l0,.64A25.48,25.48,0,0,1,249,37.09a20.52,20.52,0,0,1-4.18,6.73,18,18,0,0,1-6.28,4.33A18.9,18.9,0,0,1,230.58,49.51Zm.21-6.65a9.48,9.48,0,0,0,6.09-1.68,11.33,11.33,0,0,0,3.78-5.13,23,23,0,0,0,1.46-7.81l0-.7a22.56,22.56,0,0,0-1-7.81,11.39,11.39,0,0,0-3.48-5.34,9.56,9.56,0,0,0-6-2.07,9.31,9.31,0,0,0-6,1.68A11.08,11.08,0,0,0,222,19.08a23.5,23.5,0,0,0-1.44,7.78l0,.7a23.75,23.75,0,0,0,.94,7.89,11.19,11.19,0,0,0,3.41,5.35A9.32,9.32,0,0,0,230.79,42.86Z"
        transform="translate(-8.77 -5.63)" style="fill:#020202" />
    <path
        d="M274.29,55.56,276,50.71l4.61.66,9.76-28.43L283,20.42l-2.1,4.67L274.76,23l3.79-11,36,12.36-3.8,11.05-6.15-2.11,1.21-5-7.4-2.54-9.76,28.43,4.07,2.32-1.67,4.85Z"
        transform="translate(-8.77 -5.63)" style="fill:#020202" />
    <path
        d="M301.49,65l2.69-4.36,4.32,1.63L324.55,36.2l-3.4-3.13,2.7-4.39,17.22,10.6A21.17,21.17,0,0,1,347.45,45a11.47,11.47,0,0,1,.35,13.36,12.27,12.27,0,0,1-5.12,4.72,13,13,0,0,1-6.88,1.24,17,17,0,0,1-7.47-2.57l-6.86-4.22-5.68,9.23,3.43,3.14-2.69,4.37Zm23.37,14.4,3.55-19.46L336,62.36l-2.23,15.48,2.64,2.63-2.68,4.36Zm.07-27.49,5.94,3.66q3.13,1.93,5.52,1.56a5.67,5.67,0,0,0,3.95-2.92,6.33,6.33,0,0,0,.93-5,7.43,7.43,0,0,0-3.66-4.34l-6.06-3.73Z"
        transform="translate(-8.77 -5.63)" style="fill:#020202" />
    <path
        d="M334.46,85.14l3.62-3.64,2.47,1.84,35.76-16.76,6.22,6.17L366,108.57,367.8,111l-3.61,3.63-10.31-10.24,3.61-3.63L360,102.5l2.8-5.48L352.12,86.45l-5.46,2.83,1.73,2.46-3.62,3.64ZM358,83.4l7.78,7.72,6.76-13.88.62-1.2-.12-.12-1.28.66Z"
        transform="translate(-8.77 -5.63)" style="fill:#020202" />
    <path
        d="M364.12,116.22l4.18-3,3.34,3.2,25-17.65-1.91-4.21,4.22-3L409.14,106l-4.22,3-3.33-3.21-25,17.66,1.9,4.21-4.19,3Z"
        transform="translate(-8.77 -5.63)" style="fill:#020202" />
    <path
        d="M375.68,131.91l4.58-2.29,2.82,3.66,27.37-13.72-1.25-4.46,4.61-2.31,2,4.06,3.84,7.65,2.31,4.61-4.61,2.31-3.1-4.22-26.87,13.48,5.4,10.76,5.76-2.43,2.93,5.84-11.44,5.74Z"
        transform="translate(-8.77 -5.63)" style="fill:#020202" />
    <path
        d="M394.64,178.62a32.62,32.62,0,0,1-1.3-8.55,24.69,24.69,0,0,1,1.47-8.32l9.93-2.78,1.79,6.38-5.6,2.51a10,10,0,0,0-.76,4,17.84,17.84,0,0,0,.7,5,10.61,10.61,0,0,0,1.67,3.59,5.29,5.29,0,0,0,2.42,1.85,4.76,4.76,0,0,0,2.92.05,5,5,0,0,0,2.41-1.45,6.78,6.78,0,0,0,1.42-2.95,23.34,23.34,0,0,0,.58-5,44.66,44.66,0,0,1,.88-9,13.43,13.43,0,0,1,2.75-5.94,10.45,10.45,0,0,1,5.29-3.2,10.2,10.2,0,0,1,6.4.2,12.94,12.94,0,0,1,5.46,4,19.91,19.91,0,0,1,3.64,7.13,27.19,27.19,0,0,1,1.21,8.71,20.47,20.47,0,0,1-1.53,7.23l-9.26,2.59-1.73-6.18,5.35-2.65a11.53,11.53,0,0,0,.37-3.22,16,16,0,0,0-.64-4.28,10.13,10.13,0,0,0-1.57-3.32,5.74,5.74,0,0,0-2.39-1.9,4.51,4.51,0,0,0-3-.11,4.11,4.11,0,0,0-2.2,1.44,7.31,7.31,0,0,0-1.23,3.1,37.56,37.56,0,0,0-.58,5.5q0,7.32-2.11,11.71a10.73,10.73,0,0,1-7.17,5.79,10.24,10.24,0,0,1-6.58-.2,12.46,12.46,0,0,1-5.42-4.2A21.92,21.92,0,0,1,394.64,178.62Z"
        transform="translate(-8.77 -5.63)" style="fill:#020202" />
    <path
        d="M398,261.16l4.95,1.29-.3,4.65,29.08,7.6,2-7.51-4.81-1.74,1.64-6.27,11.31,3L432.15,299l-11.31-3,1.65-6.29,5.05.84,2-7.57-29.08-7.6-2,4.22-5-1.29Z"
        transform="translate(-8.77 -5.63)" />
    <path
        d="M378,313.39l19.66,2.06-1.83,7.72-15.61-1.06L377.81,325l-4.56-2.34ZM390.58,289l4.56,2.35-1.3,4.44,27.21,14,2.86-3.63,4.59,2.36-9.26,18a20.92,20.92,0,0,1-5.22,6.8,11.46,11.46,0,0,1-13.29,1.36,12.28,12.28,0,0,1-5.11-4.74,13,13,0,0,1-1.75-6.77,17,17,0,0,1,2-7.64l3.69-7.16-9.64-5L387,307l-4.55-2.35Zm14.84,22.38-3.2,6.2a8.3,8.3,0,0,0-1.13,5.63,5.66,5.66,0,0,0,3.21,3.71,6.28,6.28,0,0,0,5,.55,7.39,7.39,0,0,0,4.05-4l3.26-6.33Z"
        transform="translate(-8.77 -5.63)" />
    <path
        d="M372.39,323.66l3.95,3.26L374.13,331l23.6,19.5,3.57-2.94,4,3.28-21.09,25.53L375.32,369,379.5,364l4,2.84,8.32-10.08-8.26-6.83L374.39,361l-5.08-4.2,9.2-11.13-9.4-7.77-8.77,10.62,3.69,3.54-4.14,5-9-7.43Z"
        transform="translate(-8.77 -5.63)" />
    <path
        d="M349.12,351.6l3.21,4-3,3.52L368.46,383l4.1-2.15,3.22,4-25.84,20.69-7.2-9,5.12-4.1,3.38,3.61,10.2-8.17-6.7-8.37-11.28,9-4.12-5.15,11.28-9L343,364.91l-10.75,8.6,2.89,4.22-5.08,4.07-7.28-9.11Z"
        transform="translate(-8.77 -5.63)" />
    <path
        d="M304.83,381.58a32.82,32.82,0,0,1,8.12-3,24.7,24.7,0,0,1,8.45-.22l4.72,9.16-5.89,3-3.58-5a10,10,0,0,0-4.06.06,17.63,17.63,0,0,0-4.79,1.69,10.42,10.42,0,0,0-3.18,2.37,5.24,5.24,0,0,0-1.33,2.74,4.78,4.78,0,0,0,.54,2.87,4.93,4.93,0,0,0,1.9,2.06,6.82,6.82,0,0,0,3.18.81,24.08,24.08,0,0,0,5-.45,45.79,45.79,0,0,1,9-.94,13.47,13.47,0,0,1,6.37,1.5,10.57,10.57,0,0,1,4.2,4.54,10.18,10.18,0,0,1,1.09,6.31,12.92,12.92,0,0,1-2.82,6.15,19.55,19.55,0,0,1-6.26,5,27.16,27.16,0,0,1-8.28,2.95,20.78,20.78,0,0,1-7.39-.05l-4.4-8.55,5.7-2.93,3.67,4.7a11.59,11.59,0,0,0,3.24-.29,16,16,0,0,0,4.06-1.49,10,10,0,0,0,2.93-2.2,5.79,5.79,0,0,0,1.39-2.73,4.56,4.56,0,0,0-.5-2.94A4.06,4.06,0,0,0,324,404.9a7.4,7.4,0,0,0-3.28-.59,38.52,38.52,0,0,0-5.5.55q-7.19,1.49-11.9.29a10.77,10.77,0,0,1-7.12-5.86,10.38,10.38,0,0,1-1.13-6.49,12.54,12.54,0,0,1,3-6.15A21.73,21.73,0,0,1,304.83,381.58Z"
        transform="translate(-8.77 -5.63)" />
    <path
        d="M267.06,396.5l1,5-4.32,1.72,5.65,29.53,7.62-1.46-.49-5.1,6.35-1.22,2.2,11.48-37.38,7.16-2.19-11.48,6.39-1.22,1.41,4.91,7.69-1.47-5.66-29.52h-4.68l-1-5Z"
        transform="translate(-8.77 -5.63)" />
    <path
        d="M220.08,400.59a18.73,18.73,0,0,1,7.8,1.85,17.78,17.78,0,0,1,6,4.71,20.42,20.42,0,0,1,3.73,7,25.87,25.87,0,0,1,1.11,8.67l0,.64A25.75,25.75,0,0,1,237,432a20.66,20.66,0,0,1-4.13,6.74,17.63,17.63,0,0,1-6.23,4.35,18.74,18.74,0,0,1-7.9,1.38,18.93,18.93,0,0,1-7.85-1.86,17.77,17.77,0,0,1-6-4.72,20.84,20.84,0,0,1-3.76-7,25.75,25.75,0,0,1-1.13-8.64l0-.65a25.82,25.82,0,0,1,1.66-8.58,20.6,20.6,0,0,1,4.17-6.73,18,18,0,0,1,6.28-4.33A18.9,18.9,0,0,1,220.08,400.59Zm-.2,6.65a9.49,9.49,0,0,0-6.1,1.68,11.39,11.39,0,0,0-3.77,5.13,23.13,23.13,0,0,0-1.46,7.82l0,.7a22.56,22.56,0,0,0,1,7.81,11.33,11.33,0,0,0,3.49,5.34,9.5,9.5,0,0,0,6,2.06,9.37,9.37,0,0,0,6-1.68,11.16,11.16,0,0,0,3.72-5.09,23.52,23.52,0,0,0,1.42-7.78l0-.7a23.49,23.49,0,0,0-.94-7.89,11.19,11.19,0,0,0-3.41-5.35A9.34,9.34,0,0,0,219.88,407.24Z"
        transform="translate(-8.77 -5.63)" />
    <path
        d="M176.37,394.57l-1.66,4.85-4.61-.65-9.74,28.44,7.35,2.52,2.09-4.67,6.12,2.09-3.78,11.06-36-12.33,3.79-11.06,6.15,2.11-1.2,5,7.4,2.53L162,396l-4.06-2.32,1.66-4.85Z"
        transform="translate(-8.77 -5.63)" />
    <path
        d="M149.16,385.15l-2.69,4.37-4.33-1.63-16,26.09,3.41,3.12-2.7,4.4L109.6,410.91a21.09,21.09,0,0,1-6.39-5.72,11.47,11.47,0,0,1-.36-13.35,12.27,12.27,0,0,1,5.11-4.73,13,13,0,0,1,6.89-1.24,17,17,0,0,1,7.47,2.56l6.86,4.22,5.68-9.24-3.44-3.14,2.69-4.37Zm-23.43,13.11-5.94-3.65q-3.15-1.92-5.53-1.55a5.65,5.65,0,0,0-3.94,2.92,6.25,6.25,0,0,0-.93,5,7.38,7.38,0,0,0,3.66,4.33l6.07,3.73Zm0-27.48-3.53,19.46-7.57-2.41,2.23-15.49-2.65-2.62,2.68-4.37Z"
        transform="translate(-8.77 -5.63)" />
    <path
        d="M116.17,365l-3.62,3.65-2.47-1.84L74.33,383.64l-6.22-6.17,16.55-35.83-1.85-2.45,3.61-3.64,10.32,10.23-3.62,3.64-2.47-1.71-2.79,5.48,10.65,10.56,5.46-2.84-1.73-2.46,3.61-3.64ZM92.64,366.8l-7.78-7.71L78.1,373l-.62,1.21.13.12,1.28-.67Z"
        transform="translate(-8.77 -5.63)" />
    <path
        d="M86.49,334l-4.19,3L79,333.75,54,351.42l1.91,4.22-4.21,3-10.19-14.4,4.22-3,3.33,3.2,25-17.67-1.9-4.22,4.19-3Z"
        transform="translate(-8.77 -5.63)" />
    <path
        d="M74.91,318.3l-4.58,2.31-2.82-3.67L40.15,330.69l1.26,4.45-4.61,2.32-2-4.06-3.84-7.64-2.32-4.61,4.61-2.32,3.1,4.22,26.86-13.5-5.41-10.76L52,301.23l-2.93-5.84,11.44-5.75Z"
        transform="translate(-8.77 -5.63)" />
    <path
        d="M55.92,271.61a32.62,32.62,0,0,1,1.3,8.55,24.79,24.79,0,0,1-1.47,8.33l-9.93,2.78L44,284.9l5.59-2.52a9.84,9.84,0,0,0,.75-4,17.48,17.48,0,0,0-.7-5A10.24,10.24,0,0,0,48,269.77a5.31,5.31,0,0,0-2.42-1.85,4.73,4.73,0,0,0-2.91,0,4.86,4.86,0,0,0-2.41,1.45,6.78,6.78,0,0,0-1.42,2.95,23.4,23.4,0,0,0-.57,5,44.69,44.69,0,0,1-.88,9,13.32,13.32,0,0,1-2.74,5.94,10.47,10.47,0,0,1-5.29,3.21,10.2,10.2,0,0,1-6.4-.2,13,13,0,0,1-5.46-4,19.71,19.71,0,0,1-3.64-7.14,26.88,26.88,0,0,1-1.23-8.7,20.69,20.69,0,0,1,1.53-7.23l9.25-2.6,1.74,6.18-5.34,2.65a11.21,11.21,0,0,0-.38,3.23,16,16,0,0,0,.65,4.27,10,10,0,0,0,1.57,3.32,5.74,5.74,0,0,0,2.39,1.9,4.48,4.48,0,0,0,3,.1,4,4,0,0,0,2.19-1.43,7.36,7.36,0,0,0,1.23-3.1,36.57,36.57,0,0,0,.57-5.5q0-7.33,2.1-11.71a10.74,10.74,0,0,1,7.17-5.8,10.24,10.24,0,0,1,6.58.19,12.41,12.41,0,0,1,5.42,4.2A22.15,22.15,0,0,1,55.92,271.61Z"
        transform="translate(-8.77 -5.63)" /></svg>